<svg width="106" height="32" viewBox="0 0 107 32" fill="none" xmlns="http://www.w3.org/2000/svg">
<g clip-path="url(#clip0_1_692)">
<path d="M15.6232 20.3512C15.7602 22.2013 14.938 23.9144 13.499 25.0792C11.9915 26.1756 10.1414 26.6553 8.2913 26.5867C5.27631 26.5867 2.39837 25.5589 0.0686035 23.7088L2.39837 20.1456C4.52256 21.6531 6.50972 22.4069 8.42834 22.4069C9.93584 22.4069 10.6896 21.9272 10.6896 20.9679V20.8994C10.6896 20.3512 10.2785 19.94 9.5247 19.5974C9.25061 19.4604 8.2913 19.1863 6.71528 18.7066C2.87802 17.6103 0.959396 15.6917 0.959396 12.9508V12.8822C0.890873 11.1006 1.64462 9.4561 3.01507 8.35974C4.45404 7.26338 6.1671 6.7152 7.94869 6.78373C10.484 6.78373 13.0194 7.53747 15.1435 8.97645L13.0879 12.7452C11.0322 11.5803 9.31914 10.9636 7.88017 10.9636C6.50972 10.9636 5.89301 11.3747 5.89301 12.2655V12.334C5.89301 12.8137 6.30415 13.2248 7.0579 13.636C7.40051 13.773 8.2913 14.1156 9.79879 14.6638C11.1692 15.0749 12.5397 15.6917 13.7046 16.5139C14.938 17.4047 15.6232 18.8437 15.6232 20.3512ZM28.848 26.6553C28.0943 28.6424 27.272 30.0129 26.3812 30.8351C25.2849 31.7259 23.9144 32.1371 22.544 32.0685C20.8309 32.0685 19.1864 31.5889 17.6789 30.7666L19.529 26.7923C20.2142 27.272 21.0365 27.4775 21.8587 27.546C22.681 27.546 23.4348 27.0664 23.7774 26.3126L16.2399 6.98929H21.9958L26.3812 20.0771L30.5611 6.98929H36.2485L28.848 26.6553ZM51.5975 20.3512C51.7346 22.2013 50.9123 23.9144 49.4733 25.0792C47.9658 26.1756 46.1157 26.6553 44.2656 26.5867C41.2506 26.5867 38.3727 25.5589 36.0429 23.7088L38.3727 20.1456C40.4969 21.6531 42.484 22.4069 44.4026 22.4069C45.9101 22.4069 46.6639 21.9272 46.6639 20.9679V20.8994C46.6639 20.3512 46.2528 19.94 45.499 19.5974C45.2249 19.4604 44.2656 19.1863 42.6896 18.7066C38.8523 17.6103 36.9337 15.6917 36.9337 12.9508V12.8822C36.8652 11.1006 37.6189 9.4561 38.9894 8.35974C40.4283 7.26338 42.1414 6.7152 43.923 6.78373C46.4583 6.78373 48.9936 7.53747 51.1178 8.97645L49.0622 12.7452C47.0065 11.5803 45.2934 10.9636 43.8545 10.9636C42.484 10.9636 41.8673 11.3747 41.8673 12.2655V12.334C41.8673 12.8137 42.2784 13.2248 43.0322 13.636C43.3748 13.773 44.2656 14.1156 45.7731 14.6638C47.1435 15.0749 48.514 15.6917 49.6789 16.5139C50.9123 17.4047 51.5975 18.8437 51.5975 20.3512ZM68.2485 26.1756V24.4625C66.6039 25.9015 64.4112 26.5867 62.287 26.5182C60.0258 26.5867 57.7645 25.6274 56.257 23.9829C54.4754 22.1328 53.5847 19.666 53.5847 16.5824V16.5139C53.5847 13.4304 54.4754 10.9636 56.257 9.11349C57.833 7.46895 60.0258 6.50964 62.3555 6.57816C64.4797 6.50964 66.6039 7.12634 68.317 8.35974V0H73.7988V26.1756H68.2485ZM68.317 16.5139C68.3855 15.0749 67.9058 13.7045 66.9465 12.6767C66.1243 11.7173 64.8909 11.1692 63.6575 11.2377C62.4241 11.2377 61.1906 11.7173 60.3684 12.6767C59.4091 13.7045 58.9294 15.1435 58.9979 16.5824V16.651C58.9294 18.0899 59.4776 19.4604 60.3684 20.4882C62.0129 22.3383 64.8223 22.4754 66.6039 20.8308C66.741 20.6938 66.8095 20.6253 66.9465 20.4882C67.9058 19.4604 68.3855 18.0899 68.317 16.651V16.5139ZM76.9508 4.8651V0H82.7067V4.8651H76.9508ZM77.0879 26.1756V6.98929H82.5697V26.1756H77.0879ZM106.073 21.8587C106.073 25.4218 105.182 28.0257 103.4 29.6702C101.687 31.2463 99.015 32.0685 95.3834 32.0685C92.4369 32.1371 89.4904 31.4518 86.8866 30.0814L88.7367 25.6274C90.7238 26.7923 92.9165 27.409 95.2463 27.409C98.878 27.409 100.728 25.9015 100.728 22.8865V22.6809C98.9465 24.0514 96.6853 24.8051 94.424 24.7366C92.2313 24.8051 90.0386 23.9829 88.4626 22.4069C86.681 20.6253 85.7902 18.227 85.8587 15.7602V15.6917C85.7217 13.2248 86.681 10.8266 88.4626 9.04497C90.0386 7.46895 92.1628 6.64668 94.3555 6.7152C96.5482 6.64668 98.741 7.26338 100.591 8.49679V7.05782H106.073V21.8587ZM100.66 15.5546C100.66 14.3212 100.18 13.1563 99.2891 12.334C97.3705 10.6895 94.5611 10.6895 92.6425 12.334C91.7517 13.1563 91.272 14.3212 91.3405 15.5546V15.6231C91.272 16.8565 91.7517 18.0214 92.6425 18.8437C93.5332 19.666 94.7667 20.0771 96.0001 20.0771C97.2335 20.1456 98.4669 19.666 99.3577 18.8437C100.248 18.0214 100.728 16.8565 100.728 15.6231V15.5546H100.66Z" fill="black"/>
</g>
<defs>
<clipPath id="clip0_1_692">
<rect width="106.073" height="150" fill="black"/>
</clipPath>
</defs>
</svg>
