<?xml version="1.0" encoding="UTF-8"?>
<svg version="1.1" xmlns="http://www.w3.org/2000/svg" width="150" height="150">
<path d="M0 0 C1.25914719 -0.01073296 1.25914719 -0.01073296 2.54373169 -0.02168274 C3.45649368 -0.02437164 4.36925568 -0.02706055 5.30967712 -0.02983093 C6.76171539 -0.03968773 6.76171539 -0.03968773 8.24308777 -0.04974365 C11.44749533 -0.06945616 14.651856 -0.08113666 17.85630798 -0.09111023 C18.95319883 -0.09518576 20.05008968 -0.09926128 21.18021965 -0.10346031 C26.9894835 -0.12431541 32.79872379 -0.13861784 38.60801697 -0.147995 C44.59090022 -0.15903951 50.57340952 -0.19341876 56.55616093 -0.23316669 C61.17090517 -0.25939166 65.78556126 -0.26769222 70.40037346 -0.27127647 C72.60463922 -0.27612963 74.80890138 -0.28770708 77.01309395 -0.30631447 C100.52634491 -0.49242204 100.52634491 -0.49242204 111.07115173 6.27217102 C119.26371779 15.03631145 122.0664506 24.06766536 122.03330994 35.7792511 C122.03842087 36.72006027 122.0435318 37.66086945 122.04879761 38.63018799 C122.06264373 41.72575833 122.06174034 44.82110473 122.05943298 47.91670227 C122.06332309 50.07992637 122.0676584 52.24314971 122.07241821 54.40637207 C122.07987006 58.93628924 122.07959695 63.46612846 122.07432556 67.99604797 C122.06853716 73.78272402 122.08545197 79.56907934 122.10867023 85.3557024 C122.12344955 89.82286424 122.12427348 94.28994962 122.12116051 98.75713158 C122.12167177 100.88963645 122.12687257 103.02214583 122.13697243 105.15462685 C122.1493988 108.14559481 122.14250765 111.13594819 122.13096619 114.12690735 C122.13860992 114.99632965 122.14625366 115.86575195 122.15412903 116.76152039 C122.07575655 126.01538074 119.82022612 133.94828176 113.86021423 141.10029602 C108.11675208 146.69430005 101.47807381 150.24811377 93.42791748 150.29434204 C92.5687674 150.30149734 91.70961731 150.30865265 90.82443237 150.31602478 C89.88982681 150.31871368 88.95522125 150.32140259 87.99229431 150.32417297 C87.00154907 150.33074417 86.01080383 150.33731537 84.99003601 150.34408569 C81.71108421 150.36379651 78.43217818 150.37547687 75.15318298 150.38545227 C74.03173071 150.3895278 72.91027843 150.39360332 71.75484276 150.39780235 C65.81820739 150.41865439 59.88159508 150.43295946 53.94493103 150.44233704 C47.82285067 150.45339505 41.7011344 150.48779084 35.57918262 150.52750874 C30.86329487 150.55369344 26.14749359 150.56203058 21.43153954 150.56561852 C19.17538178 150.57048022 16.91922778 150.58208225 14.66314125 150.60065651 C11.49913058 150.62508499 8.33605853 150.62407573 5.17198181 150.61714172 C3.7852552 150.63635681 3.7852552 150.63635681 2.37051392 150.65596008 C-6.83527134 150.58275843 -13.74184946 147.29590844 -20.44837952 141.08467102 C-25.05747684 136.10403426 -28.35483978 130.75003959 -28.38179016 123.85403442 C-28.38750031 122.97798553 -28.39321045 122.10193665 -28.39909363 121.19934082 C-28.40021149 120.24086746 -28.40132935 119.2823941 -28.40248108 118.2948761 C-28.40744598 117.28316345 -28.41241089 116.27145081 -28.41752625 115.2290802 C-28.43215586 111.87494734 -28.438952 108.52086182 -28.44447327 105.16670227 C-28.45022503 102.83602904 -28.45598276 100.50535582 -28.46174622 98.17468262 C-28.47225914 93.28294148 -28.47809959 88.39121679 -28.48158264 83.49946594 C-28.48706125 77.23944364 -28.51107471 70.97963952 -28.5395546 64.71968555 C-28.55820576 59.90261202 -28.56338795 55.08559071 -28.56491852 50.26848412 C-28.56794107 47.96127317 -28.57595616 45.65406305 -28.5891037 43.34688759 C-28.60621202 40.11323747 -28.60427178 36.88011597 -28.59779358 33.6464386 C-28.60700836 32.6980864 -28.61622314 31.74973419 -28.62571716 30.77264404 C-28.56365294 20.85258115 -25.47613147 14.5859436 -18.65541077 7.35420227 C-13.33587082 2.49086882 -7.19223423 0.04228731 0 0 Z " fill="#70727A" transform="translate(28.241348266601563,-0.1471710205078125)"/>
<path d="M0 0 C2.6875 0.375 2.6875 0.375 4.63037109 2.52563477 C7.85863758 6.99716315 10.54435112 11.75191626 13.28808594 16.53100586 C14.30996179 18.30808597 15.34202191 20.07896514 16.375 21.84960938 C17.35339844 23.54633789 17.35339844 23.54633789 18.3515625 25.27734375 C18.94404785 26.30335693 19.5365332 27.32937012 20.14697266 28.38647461 C25.26044439 38.30628563 25.29779605 50.50532501 22.77734375 61.2578125 C19.30821028 70.69474791 13.8407417 80.23418772 5.6875 86.375 C-0.94131266 89.2427737 -7.60202017 89.89679532 -14.75 89.8125 C-15.67087402 89.80347656 -16.59174805 89.79445313 -17.54052734 89.78515625 C-29.32719711 89.48491205 -38.69820869 85.61583937 -47.3125 77.375 C-53.07669988 70.10572776 -57.5620349 61.98738768 -62.125 53.9375 C-63.44229763 51.62532025 -64.76218605 49.31463422 -66.08203125 47.00390625 C-66.65542236 45.99400635 -67.22881348 44.98410645 -67.81958008 43.94360352 C-68.92064129 42.04920204 -70.09707443 40.19813835 -71.3125 38.375 C-71.359375 35.9609375 -71.359375 35.9609375 -70.3125 33.375 C-68.0455674 31.64809585 -66.03801186 30.33797908 -63.5625 29 C-62.94117188 28.63261719 -62.31984375 28.26523437 -61.6796875 27.88671875 C-58.70277039 26.22240855 -56.79636709 25.33019749 -53.359375 25.6484375 C-52.34617187 26.00808594 -52.34617187 26.00808594 -51.3125 26.375 C-50.9825 28.025 -50.6525 29.675 -50.3125 31.375 C-51.59966647 32.38078589 -52.89238658 33.37946798 -54.1875 34.375 C-54.90679687 34.931875 -55.62609375 35.48875 -56.3671875 36.0625 C-58.3125 37.375 -58.3125 37.375 -60.3125 37.375 C-58.3489143 41.06190142 -56.33601233 44.7207748 -54.3125 48.375 C-53.89967773 49.12507324 -53.48685547 49.87514648 -53.06152344 50.64794922 C-51.67891832 53.14773525 -50.27855919 55.63692706 -48.875 58.125 C-48.43309326 58.92848877 -47.99118652 59.73197754 -47.53588867 60.55981445 C-43.33695909 67.93672452 -38.60043835 73.95762412 -30.5625 77.25 C-29.63953125 77.63929687 -28.7165625 78.02859375 -27.765625 78.4296875 C-20.14365783 81.36681498 -9.65599332 81.81242087 -1.75 79.375 C6.44563297 74.60663173 10.52472096 67.11838504 13.6875 58.375 C17.45512833 42.81198622 11.732202 32.70601348 3.9296875 19.7890625 C3.24592041 18.65162598 3.24592041 18.65162598 2.54833984 17.49121094 C1.66059943 16.02916267 0.75786616 14.57608285 -0.16162109 13.13378906 C-2.66810795 9.0726707 -3.97225694 6.3081826 -3.3125 1.375 C-2.3125 0.375 -2.3125 0.375 0 0 Z " fill="#FAFAFA" transform="translate(98.3125,32.625)"/>
<path d="M0 0 C0.3717334 0.66829834 0.7434668 1.33659668 1.12646484 2.02514648 C10.45692661 18.79613199 10.45692661 18.79613199 20.09692383 35.38989258 C23.9789759 41.93374384 27.76933954 48.5293182 31.5625 55.125 C35.77510811 62.43883386 39.9883087 69.75139777 44.3125 77 C44.66707275 77.59828613 45.02164551 78.19657227 45.38696289 78.81298828 C46.78382184 81.13724421 48.07293826 83.07293826 50 85 C52.36730201 85.38710381 52.36730201 85.38710381 55 85.5 C59.77777778 85.77777778 59.77777778 85.77777778 62 88 C61.625 91.125 61.625 91.125 61 94 C56.92683502 95.35772166 53.2588436 95.51865848 49 95 C40.27630939 90.6381547 36.16550525 82.14030461 31.58666992 73.95556641 C30.18079196 71.44274806 28.76166686 68.93749935 27.34310913 66.43182373 C26.61560981 65.14674003 25.88874432 63.8612973 25.1625061 62.57550049 C21.83179082 56.68357254 18.42461928 50.83780197 15 45 C10.06596499 36.56152397 5.14881286 28.11342564 0.27563477 19.63964844 C-0.44398967 18.38995288 -1.16531715 17.1412363 -1.88842773 15.89355469 C-2.89513774 14.15569484 -3.89498107 12.41386275 -4.89453125 10.671875 C-5.47050049 9.6725293 -6.04646973 8.67318359 -6.63989258 7.64355469 C-7.80832985 5.37253713 -8.53638013 3.4938531 -9 1 C-5.91810344 0.08684546 -3.20344581 -0.04250011 0 0 Z " fill="#F9F9FA" transform="translate(29,0)"/>
<path d="M0 0 C3.3 0 6.6 0 10 0 C10.78375 1.44375 11.5675 2.8875 12.375 4.375 C15.25721741 9.65336016 18.15328013 14.92397305 21.0625 20.1875 C21.67907471 21.30874268 21.67907471 21.30874268 22.30810547 22.45263672 C24.75102532 26.86311318 27.31473298 31.14755034 30.07983398 35.36450195 C31 37 31 37 31 39 C31.51949219 38.71125 32.03898437 38.4225 32.57421875 38.125 C39.82758092 34.26369075 39.82758092 34.26369075 44 35 C44.66 35.66 45.32 36.32 46 37 C45.89453125 39.42578125 45.89453125 39.42578125 45 42 C43.07421875 43.73046875 43.07421875 43.73046875 40.6875 45.1875 C39.90761719 45.67605469 39.12773438 46.16460937 38.32421875 46.66796875 C37.55722656 47.10753906 36.79023437 47.54710937 36 48 C35.34644531 48.40863281 34.69289062 48.81726562 34.01953125 49.23828125 C31.1395467 50.32454235 29.85191991 50.18940536 27 49 C25.30884819 46.73366901 24.01526836 44.65836118 22.6875 42.1875 C21.82828221 40.65616178 20.96889397 39.12491919 20.109375 37.59375 C19.62919922 36.72492187 19.14902344 35.85609375 18.65429688 34.9609375 C16.74693174 31.54704665 14.79087933 28.16348384 12.828125 24.78125 C11.72953796 22.88254395 10.63165476 20.98343303 9.53408813 19.08413696 C8.80465851 17.82253003 8.07433582 16.56143901 7.34310913 15.3008728 C6.30580333 13.50937738 5.27515353 11.71421038 4.24609375 9.91796875 C3.64466553 8.87406982 3.0432373 7.8301709 2.42358398 6.75463867 C1 4 1 4 0 0 Z " fill="#F9F9F9" transform="translate(42,0)"/>
<path d="M0 0 C2.97152078 0.16613934 4.48476527 0.4549904 6.5546875 2.64453125 C6.99039063 3.35996094 7.42609375 4.07539062 7.875 4.8125 C8.3803125 5.61945313 8.885625 6.42640625 9.40625 7.2578125 C10.5193988 9.17308323 11.60035841 11.10726481 12.65625 13.0546875 C16.67184515 20.37402229 20.46999633 25.23499817 28 29 C29.49881323 29.06034885 31.00033693 29.06041583 32.5 29.02734375 C33.386875 29.01509766 34.27375 29.00285156 35.1875 28.99023438 C37.06257728 28.95507668 38.93758541 28.91601367 40.8125 28.87304688 C41.699375 28.86208984 42.58625 28.85113281 43.5 28.83984375 C44.3146875 28.82300537 45.129375 28.80616699 45.96875 28.78881836 C48 29 48 29 50 31 C49.67028521 34.29714793 49.3773161 35.6226839 47 38 C37.09100296 40.67385634 27.82847975 39.72647088 18.81640625 34.99609375 C11.72720497 29.97170838 7.30134359 23.87945339 3.0625 16.375 C2.32290039 15.12589844 2.32290039 15.12589844 1.56835938 13.8515625 C-2.52273824 6.72476832 -2.52273824 6.72476832 -2 2 C-1.34 1.34 -0.68 0.68 0 0 Z " fill="#F8F8F9" transform="translate(48,70)"/>
<path d="M0 0 C3 1 3 1 3 1 Z " fill="#6E6F78" transform="translate(129,0)"/>
<path d="M0 0 C2 1 2 1 2 1 Z " fill="#6F7279" transform="translate(130,149)"/>
<path d="M0 0 C2 1 2 1 2 1 Z " fill="#6F7179" transform="translate(17,149)"/>
<path d="M0 0 C2 1 2 1 2 1 Z " fill="#70717A" transform="translate(132,148)"/>
<path d="M0 0 C2 1 2 1 2 1 Z " fill="#6E7278" transform="translate(15,148)"/>
<path d="M0 0 C2 1 2 1 2 1 Z " fill="#6F7279" transform="translate(134,147)"/>
<path d="M0 0 C2 1 2 1 2 1 Z " fill="#6D7277" transform="translate(137,145)"/>
<path d="" fill="#6E7179" transform="translate(0,0)"/>
<path d="" fill="#707079" transform="translate(0,0)"/>
<path d="" fill="#6F7279" transform="translate(0,0)"/>
<path d="" fill="#707179" transform="translate(0,0)"/>
<path d="" fill="#6F7178" transform="translate(0,0)"/>
<path d="" fill="#6F717A" transform="translate(0,0)"/>
<path d="" fill="#6F7179" transform="translate(0,0)"/>
<path d="" fill="#6F7178" transform="translate(0,0)"/>
<path d="" fill="#71717A" transform="translate(0,0)"/>
<path d="" fill="#6F7079" transform="translate(0,0)"/>
<path d="M0 0 C2 1 2 1 2 1 Z " fill="#6D727D" transform="translate(138,5)"/>
<path d="M0 0 C2 1 2 1 2 1 Z " fill="#6E7078" transform="translate(12,3)"/>
<path d="M0 0 C2 1 2 1 2 1 Z " fill="#6E7079" transform="translate(14,2)"/>
<path d="M0 0 C2 1 2 1 2 1 Z " fill="#6F7179" transform="translate(132,1)"/>
<path d="M0 0 C2 1 2 1 2 1 Z " fill="#6C6D76" transform="translate(18,0)"/>
<path d="" fill="#6F7179" transform="translate(0,0)"/>
<path d="" fill="#717377" transform="translate(0,0)"/>
<path d="" fill="#6E7178" transform="translate(0,0)"/>
<path d="" fill="#70727A" transform="translate(0,0)"/>
<path d="" fill="#70727A" transform="translate(0,0)"/>
<path d="" fill="#70717A" transform="translate(0,0)"/>
<path d="" fill="#707279" transform="translate(0,0)"/>
<path d="" fill="#6F7179" transform="translate(0,0)"/>
<path d="" fill="#707379" transform="translate(0,0)"/>
<path d="" fill="#70727A" transform="translate(0,0)"/>
<path d="" fill="#70727B" transform="translate(0,0)"/>
<path d="" fill="#6E7079" transform="translate(0,0)"/>
<path d="" fill="#6F727A" transform="translate(0,0)"/>
<path d="" fill="#6F7179" transform="translate(0,0)"/>
<path d="" fill="#6F7078" transform="translate(0,0)"/>
<path d="" fill="#6F707B" transform="translate(0,0)"/>
<path d="" fill="#717378" transform="translate(0,0)"/>
<path d="" fill="#70737A" transform="translate(0,0)"/>
<path d="" fill="#70727B" transform="translate(0,0)"/>
<path d="" fill="#70737B" transform="translate(0,0)"/>
<path d="" fill="#71717B" transform="translate(0,0)"/>
<path d="" fill="#6F727A" transform="translate(0,0)"/>
<path d="" fill="#717379" transform="translate(0,0)"/>
<path d="" fill="#70747B" transform="translate(0,0)"/>
<path d="" fill="#71737A" transform="translate(0,0)"/>
<path d="" fill="#707179" transform="translate(0,0)"/>
<path d="" fill="#707279" transform="translate(0,0)"/>
<path d="" fill="#6E7178" transform="translate(0,0)"/>
<path d="" fill="#6E717A" transform="translate(0,0)"/>
<path d="" fill="#70717A" transform="translate(0,0)"/>
<path d="" fill="#727279" transform="translate(0,0)"/>
<path d="" fill="#6F727A" transform="translate(0,0)"/>
<path d="" fill="#6F7179" transform="translate(0,0)"/>
<path d="" fill="#6F7179" transform="translate(0,0)"/>
<path d="" fill="#707277" transform="translate(0,0)"/>
<path d="" fill="#6E7178" transform="translate(0,0)"/>
<path d="" fill="#70737D" transform="translate(0,0)"/>
<path d="" fill="#6E7078" transform="translate(0,0)"/>
<path d="" fill="#70727B" transform="translate(0,0)"/>
<path d="" fill="#70717A" transform="translate(0,0)"/>
<path d="" fill="#6F727A" transform="translate(0,0)"/>
</svg>
